<?xml version="1.0" encoding="utf-8"?>
<!-- Generator: Adobe Illustrator 16.0.0, SVG Export Plug-In . SVG Version: 6.00 Build 0)  -->
<!DOCTYPE svg PUBLIC "-//W3C//DTD SVG 1.1//EN" "http://www.w3.org/Graphics/SVG/1.1/DTD/svg11.dtd">
<svg version="1.1" id="Layer_1" xmlns="http://www.w3.org/2000/svg" xmlns:xlink="http://www.w3.org/1999/xlink" x="0px" y="0px"
	 width="544.16px" height="174.94px" viewBox="0 0 544.16 174.94" enable-background="new 0 0 544.16 174.94" xml:space="preserve">
<path d="M666.069-161.482v138.369h394.592v-138.369H666.069z M736.931-71.591c0,21.459-17.461,38.93-38.931,38.93
	c-7.91,0-15.271-2.371-21.42-6.441v-27.35c2.319,9.67,11.04,16.891,21.42,16.891c12.149,0,22.03-9.891,22.03-22.029v-79.351h16.9
	V-71.591z M807.53-134.033h-48.801v33.131h32.261v16.9h-32.261v33.129h48.801v16.91h-65.7v-116.97h65.7V-134.033z M891.421-134.033
	h-31.021v100.07H843.5v-100.07h-31.021v-16.899h78.941V-134.033z M974.661-134.033H943.64v100.07h-16.898v-100.07h-31.01v-16.899
	h78.93V-134.033z M1050.151-33.972l-55.49-81.18v81.18h-16.9v-116.97h12.91l59.48,86.999V-33.972z"/>
<g>
	<path stroke="#000000" stroke-miterlimit="10" d="M48.108-367.658v98.707c0,27.231-22.077,49.304-49.305,49.304
		c-27.232,0-49.308-22.072-49.308-49.304v-15.203H-28.1v15.203c0,15.15,12.047,27.433,26.903,27.433s26.898-12.282,26.898-27.433
		v-98.707H48.108z"/>
	<g>
		<path d="M58.108-381.334v172H-60.505v-172H58.108 M74.108-397.334h-16H-60.505h-16v16v172v16h16H58.108h16v-16v-172V-397.334
			L74.108-397.334z"/>
	</g>
</g>
<g>
	<polyline fill="none" stroke="#000000" stroke-width="25" stroke-linecap="square" stroke-miterlimit="10" points="
		678.199,-224.385 575.688,-374.325 575.688,-226.315 	"/>
	<g>
		
			<line fill="none" stroke="#000000" stroke-width="25" stroke-linecap="square" stroke-miterlimit="10" x1="377.107" y1="-374.325" x2="377.107" y2="-226.315"/>
		
			<line fill="none" stroke="#000000" stroke-width="25" stroke-linecap="square" stroke-miterlimit="10" x1="331.232" y1="-374.325" x2="422.982" y2="-374.325"/>
	</g>
	<g>
		
			<line fill="none" stroke="#000000" stroke-width="25" stroke-linecap="square" stroke-miterlimit="10" x1="500.232" y1="-374.325" x2="500.232" y2="-226.315"/>
		
			<line fill="none" stroke="#000000" stroke-width="25" stroke-linecap="square" stroke-miterlimit="10" x1="454.357" y1="-374.325" x2="546.107" y2="-374.325"/>
	</g>
	<g>
		
			<line fill="none" stroke="#000000" stroke-width="25" stroke-linecap="square" stroke-miterlimit="10" x1="226.733" y1="-300.32" x2="274.447" y2="-300.32"/>
		<polyline fill="none" stroke="#000000" stroke-width="25" stroke-linecap="square" stroke-miterlimit="10" points="
			298.9,-226.315 226.733,-226.315 226.733,-374.325 298.9,-374.325 		"/>
	</g>
	<path fill="none" stroke="#000000" stroke-width="25" stroke-linecap="square" stroke-miterlimit="10" d="M104.316-282.667v13.198
		c0,24.898,20.185,45.083,45.083,45.083s45.083-20.185,45.083-45.083v-104.857"/>
</g>
<g>
	<polygon points="544.16,113.37 544.16,173.05 544.14,173.01 483.21,52.93 462.04,173.01 437.04,173.01 467.54,0 486.64,0 	"/>
	<polygon points="339.835,0 293.96,0 268.96,0 223.085,0 218.677,25 264.552,25 238.454,173.01 263.454,173.01 289.552,25 
		335.427,25 	"/>
	<polygon points="462.961,0 417.086,0 392.086,0 346.211,0 341.803,25 387.678,25 361.579,173.01 386.579,173.01 412.678,25 
		458.553,25 	"/>
	<polygon points="211.345,25 215.753,0 118.585,0 105.536,74.006 101.128,99.006 88.079,173.01 185.247,173.01 189.655,148.01 
		117.487,148.01 126.128,99.006 173.842,99.006 178.25,74.006 130.536,74.006 139.177,25 	"/>
	<path d="M111.34,0l-20.7,117.36c-5.6,31.75-35.98,57.58-67.73,57.58c-8.49,0-16.23-1.851-22.91-5.16v-45.34
		c0.68,14.569,11.78,25.5,27.31,25.5c17.97,0,35.16-14.62,38.33-32.58L86.34,0H111.34z"/>
</g>
<g>
	<polygon points="-70.507,401.369 -70.507,461.049 -70.527,461.01 -131.457,340.93 -152.627,461.01 -177.627,461.01 -147.127,288 
		-128.027,288 	"/>
	<polygon points="-274.832,288 -320.707,288 -345.707,288 -391.582,288 -395.99,313 -350.115,313 -376.213,461.01 -351.213,461.01 
		-325.115,313 -279.24,313 	"/>
	<polygon points="-151.706,288 -197.581,288 -222.581,288 -268.456,288 -272.864,313 -226.989,313 -253.088,461.01 -228.088,461.01 
		-201.989,313 -156.114,313 	"/>
	<polygon points="-403.322,313 -398.914,288 -496.082,288 -509.131,362.006 -513.539,387.006 -526.588,461.01 -429.42,461.01 
		-425.012,436.01 -497.18,436.01 -488.539,387.006 -440.825,387.006 -436.417,362.006 -484.131,362.006 -475.49,313 	"/>
	<path d="M-503.327,288l-20.7,117.359c-5.6,31.75-35.98,57.58-67.73,57.58c-8.49,0-16.23-1.85-22.91-5.16v-45.34
		c0.68,14.57,11.78,25.5,27.31,25.5c17.97,0,35.16-14.619,38.33-32.58l20.7-117.359H-503.327z"/>
</g>
<g>
	<polygon points="452.571,495.927 452.571,511.591 442.795,511.591 387.302,430.407 387.302,511.591 370.4,511.591 370.4,394.623 
		383.313,394.623 	"/>
	<polygon points="284.058,394.623 253.043,394.623 236.141,394.623 205.125,394.623 205.125,411.525 236.141,411.525 
		236.141,511.593 253.043,511.593 253.043,411.525 284.058,411.525 	"/>
	<polygon points="367.3,394.623 336.285,394.623 319.383,394.623 288.368,394.623 288.368,411.525 319.383,411.525 319.383,511.593 
		336.285,511.593 336.285,411.525 367.3,411.525 	"/>
	<polygon points="200.168,411.525 200.168,394.623 134.475,394.623 134.475,444.657 134.475,461.56 134.475,511.593 
		200.168,511.593 200.168,494.69 151.377,494.69 151.377,461.56 183.635,461.56 183.635,444.657 151.377,444.657 151.377,411.525 	
		"/>
	<g>
		<path d="M90.643,512.896c-21.467,0-38.931-17.464-38.931-38.931v-17.374h16.902v17.374c0,12.147,9.882,22.029,22.029,22.029
			s22.029-9.882,22.029-22.029v-79.343h16.902v79.343C129.574,495.433,112.109,512.896,90.643,512.896z"/>
	</g>
</g>
<g>
	<polygon points="1102.905,262.359 1102.905,292.33 1047.415,211.15 1047.415,292.33 1030.515,292.33 1030.515,175.359 
		1043.425,175.359 	"/>
	<polygon points="944.175,175.369 944.175,192.27 913.155,192.27 913.155,292.34 896.255,292.34 896.255,192.27 865.235,192.27 
		865.235,175.369 	"/>
	<polygon points="1027.415,175.369 1027.415,192.27 996.395,192.27 996.395,292.34 979.495,292.34 979.495,192.27 948.485,192.27 
		948.485,175.369 	"/>
	<polygon points="811.485,192.27 811.485,225.4 843.745,225.4 843.745,242.301 811.485,242.301 811.485,275.43 860.285,275.43 
		860.285,292.34 794.585,292.34 794.585,175.369 860.285,175.369 860.285,192.27 	"/>
	<path d="M789.685,175.359v79.352c0,21.459-17.459,38.93-38.93,38.93c-7.91,0-15.27-2.371-21.42-6.441v-27.35
		c2.32,9.67,11.04,16.891,21.42,16.891c12.15,0,22.03-9.891,22.03-22.029v-79.352H789.685z"/>
	<line fill="none" x1="1030.515" y1="175.369" x2="1027.415" y2="175.369"/>
</g>
<g>
	<polygon fill="#696969" points="1183.669,-308.643 1183.669,-278.674 1128.179,-359.853 1128.179,-278.674 1111.278,-278.674 
		1111.278,-395.643 1124.188,-395.643 	"/>
	<polygon fill="#696969" points="1024.935,-395.638 993.919,-395.638 977.017,-395.638 946.003,-395.638 946.003,-378.736 
		977.017,-378.736 977.017,-278.67 993.919,-278.67 993.919,-378.736 1024.935,-378.736 	"/>
	<polygon fill="#696969" points="1108.177,-395.638 1077.161,-395.638 1060.259,-395.638 1029.245,-395.638 1029.245,-378.736 
		1060.259,-378.736 1060.259,-278.67 1077.161,-278.67 1077.161,-378.736 1108.177,-378.736 	"/>
	<polygon fill="#696969" points="941.044,-378.736 941.044,-395.638 875.353,-395.638 875.353,-345.604 875.353,-328.703 
		875.353,-278.67 941.044,-278.67 941.044,-295.572 892.253,-295.572 892.253,-328.703 924.513,-328.703 924.513,-345.604 
		892.253,-345.604 892.253,-378.736 	"/>
	<path fill="#696969" d="M870.45-395.643v79.35c0,21.461-17.461,38.93-38.932,38.93c-7.91,0-15.27-2.369-21.42-6.439v-27.35
		c2.32,9.67,11.041,16.889,21.42,16.889c12.15,0,22.031-9.889,22.031-22.029v-79.35H870.45z"/>
	<g>
		<path fill="#696969" d="M1199.185-262.813h-404.6v-148.375h404.6V-262.813z M804.585-272.813h384.6v-128.375h-384.6V-272.813z"/>
	</g>
</g>
<line fill="none" x1="0" y1="124.44" x2="0" y2="121.63"/>
</svg>
